<?xml version="1.0" encoding="utf-8"?>
<!-- Generator: Adobe Illustrator 15.1.0, SVG Export Plug-In . SVG Version: 6.00 Build 0)  -->
<!DOCTYPE svg PUBLIC "-//W3C//DTD SVG 1.1//EN" "http://www.w3.org/Graphics/SVG/1.1/DTD/svg11.dtd">
<svg version="1.1" id="Layer_1" xmlns="http://www.w3.org/2000/svg" xmlns:xlink="http://www.w3.org/1999/xlink" x="0px" y="0px"
	 width="239.988px" height="119.994px" viewBox="0 0 239.988 119.994" enable-background="new 0 0 239.988 119.994"
	 xml:space="preserve">
<path fill="none" stroke="#FFFFFF" stroke-miterlimit="10" d="M162.961,57.655"/>
<path d="M131.705,23.874c-4.196,0-23.046,0.05-23.046,0.05c-0.827,0.002-1.496,0.673-1.496,1.5v41.733c0,0.829,0.672,1.5,1.5,1.5
	s1.5-0.671,1.5-1.5V26.92c4.541-0.012,18.067-0.046,21.542-0.046c0.809,0,1.607,0.042,2.399,0.109l-26.122,54.835L81.07,26.28
	c-0.276-0.57-0.866-0.883-1.462-0.838c-0.101-0.022-0.206-0.034-0.313-0.034c-0.829,0-1.5,0.671-1.5,1.5v58.72
	c0,0.828,0.671,1.5,1.5,1.5s1.5-0.672,1.5-1.5V32.593l25.666,52.964c0.26,0.534,0.795,0.846,1.352,0.846
	c0.06,0,0.12-0.013,0.18-0.02c0.061,0.007,0.121,0.02,0.182,0.02c0.561,0,1.099-0.315,1.355-0.854l25.684-53.914v51.803
	c-1.15,0.143-2.319,0.225-3.507,0.225H117.22c-0.828,0-1.5,0.671-1.5,1.5c0,0.828,0.672,1.5,1.5,1.5h14.485
	c17.312,0,31.396-14.084,31.396-31.396C163.102,37.957,149.018,23.874,131.705,23.874z M138.212,82.902V27.635
	c12.531,2.95,21.89,14.215,21.89,27.632C160.102,68.685,150.743,79.952,138.212,82.902z"/>
</svg>
