<?xml version="1.0" encoding="utf-8"?>
<!-- Generator: Adobe Illustrator 19.1.0, SVG Export Plug-In . SVG Version: 6.00 Build 0)  -->
<svg version="1.1" id="Layer_1" xmlns="http://www.w3.org/2000/svg" xmlns:xlink="http://www.w3.org/1999/xlink" x="0px" y="0px"
	 width="240px" height="120px" viewBox="-177 360.9 240 120" style="enable-background:new -177 360.9 240 120;"
	 xml:space="preserve">
<metadata><?xpacket begin="﻿" id="W5M0MpCehiHzreSzNTczkc9d"?>
<x:xmpmeta xmlns:x="adobe:ns:meta/" x:xmptk="Adobe XMP Core 5.6-c067 79.157747, 2015/03/30-23:40:42        ">
   <rdf:RDF xmlns:rdf="http://www.w3.org/1999/02/22-rdf-syntax-ns#">
      <rdf:Description rdf:about=""/>
   </rdf:RDF>
</x:xmpmeta>
                                                                                                    
                                                                                                    
                                                                                                    
                                                                                                    
                                                                                                    
                                                                                                    
                                                                                                    
                                                                                                    
                                                                                                    
                                                                                                    
                                                                                                    
                                                                                                    
                                                                                                    
                                                                                                    
                                                                                                    
                                                                                                    
                                                                                                    
                                                                                                    
                                                                                                    
                                                                                                    
                           
<?xpacket end="w"?></metadata>
<style type="text/css">
	.st0{fill:none;stroke:#FFFFFF;stroke-miterlimit:10;}
	.st1{fill:#231F20;}
</style>
<path class="st0" d="M-14,418.6"/>
<path class="st1" d="M-19.8,404.7l0.2-0.2l-0.2-0.2v-0.1h-0.1l-36.9-36.9l-36.8,36.8h-0.2v0.2l-0.2,0.2l0.2,0.2V437l-0.2,0.2
	l0.2,0.2v0.2h0.2l36.8,36.8l37.2-37.2l-0.2-0.2V404.7z M-20.3,436.5l-15.6-15.6l15.6-15.6V436.5z M-36.3,420.5l-20.3-20.3v-31.9
	l36.2,36.2L-36.3,420.5z M-56.8,441L-77,420.9l20.2-20.2l20.2,20.2L-56.8,441z M-57,368.4v31.9l-20.3,20.3l-15.9-15.9L-57,368.4z
	 M-93.3,405.2l15.6,15.6l-15.6,15.6V405.2z M-77.3,421.2l20.3,20.3v31.9l-36.2-36.2L-77.3,421.2z M-56.5,473.4v-31.9l20.3-20.3
	l15.9,15.9L-56.5,473.4z"/>
</svg>
